<?xml version="1.0" standalone="no"?>
<!DOCTYPE svg PUBLIC "-//W3C//DTD SVG 20010904//EN"
 "http://www.w3.org/TR/2001/REC-SVG-20010904/DTD/svg10.dtd">
<svg version="1.0" xmlns="http://www.w3.org/2000/svg"
 width="1062.000000pt" height="246.000000pt" viewBox="0 0 1062.000000 246.000000"
 preserveAspectRatio="xMidYMid meet">

<g transform="translate(0.000000,246.000000) scale(0.100000,-0.100000)"
fill="#000000" stroke="none">
<path d="M873 2449 c-75 -22 -133 -117 -119 -194 8 -40 42 -91 79 -119 27 -20
43 -21 273 -24 l244 -3 0 176 0 175 -222 -1 c-123 0 -237 -5 -255 -10z"/>
<path d="M2970 1605 l0 -505 145 0 145 0 0 505 0 505 -145 0 -145 0 0 -505z"/>
<path d="M3539 2067 c-81 -112 -113 -231 -107 -402 4 -96 10 -134 31 -194 62
-174 195 -305 369 -362 62 -20 93 -24 203 -24 143 0 189 11 299 69 58 30 176
132 176 151 0 6 -53 44 -117 87 l-118 76 -33 -29 c-77 -68 -187 -94 -291 -69
-141 34 -233 165 -233 330 0 109 29 180 101 251 66 65 119 84 226 83 79 -1
120 -15 186 -67 l47 -35 118 79 c70 46 112 80 103 83 -8 2 -220 7 -472 9
l-459 4 -29 -40z"/>
<path d="M4672 2051 c-70 -108 -102 -221 -102 -356 0 -297 176 -528 455 -600
75 -19 221 -19 304 0 215 51 387 229 437 451 12 56 15 104 11 183 -5 123 -29
206 -84 299 l-37 62 -281 0 c-155 0 -369 3 -476 6 l-194 6 -33 -51z m632 -40
c63 -27 118 -81 151 -148 27 -53 30 -67 30 -163 0 -95 -3 -110 -28 -162 -59
-121 -172 -185 -306 -176 -163 12 -277 137 -289 313 -11 167 82 311 225 351
61 18 160 11 217 -15z"/>
<path d="M5950 1596 l0 -496 145 0 145 0 2 352 3 351 151 -249 150 -249 60 -3
59 -2 150 252 150 252 3 -352 2 -352 152 0 151 0 -6 233 c-4 127 -7 348 -7
490 l0 257 -217 -2 -217 -3 -105 -173 c-59 -95 -110 -172 -116 -173 -5 0 -56
75 -111 167 -56 91 -106 169 -110 174 -5 4 -105 11 -221 15 l-213 7 0 -496z"/>
<path d="M7470 1585 l0 -485 283 0 c203 0 300 4 348 14 177 38 276 146 287
312 8 128 -43 234 -135 279 l-40 19 48 47 c67 65 91 151 73 262 l-7 37 -201
-1 c-150 -1 -192 -4 -165 -11 53 -14 81 -48 87 -106 10 -104 -40 -144 -190
-150 l-97 -4 -3 133 -3 134 -142 3 -143 3 0 -486z m524 14 c51 -14 93 -56 101
-102 6 -28 2 -48 -16 -84 -35 -70 -67 -83 -206 -83 l-113 0 0 133 c0 74 3 137
7 140 10 11 185 8 227 -4z"/>
<path d="M8552 1743 c4 -306 5 -320 27 -378 76 -191 222 -275 475 -275 252 1
411 105 468 309 16 57 18 105 18 363 l0 298 -140 0 -140 0 0 -228 c0 -250 -9
-328 -45 -383 -44 -68 -149 -97 -247 -67 -48 14 -103 73 -117 125 -6 22 -11
145 -11 296 l0 257 -146 0 -145 0 3 -317z"/>
<path d="M9737 2043 c-14 -22 -17 -107 -7 -163 30 -164 121 -240 358 -301 148
-38 171 -47 205 -77 35 -33 36 -79 2 -121 -34 -40 -82 -54 -169 -49 -88 4
-148 37 -175 97 l-17 38 -132 -40 c-74 -23 -132 -46 -132 -53 0 -29 42 -107
81 -149 86 -93 191 -135 359 -142 226 -10 384 61 465 209 25 46 30 66 33 149
4 82 1 102 -18 147 -46 106 -132 157 -395 232 -60 17 -125 41 -142 53 -58 40
-67 105 -21 155 l21 22 -156 0 c-86 0 -158 -3 -160 -7z"/>
<path d="M10279 2019 c17 -17 31 -37 31 -45 0 -8 8 -14 18 -14 21 0 242 56
249 63 20 20 -22 27 -168 27 l-161 0 31 -31z"/>
<path d="M295 1910 c-101 -50 -124 -181 -47 -272 49 -58 44 -58 597 -58 l505
0 0 175 0 175 -507 0 c-487 0 -510 -1 -548 -20z"/>
<path d="M110 1389 c-61 -25 -102 -88 -102 -159 0 -68 34 -123 97 -158 27 -15
94 -17 638 -20 l607 -3 0 176 0 175 -607 -1 c-379 0 -617 -4 -633 -10z"/>
<path d="M1440 1121 l0 -61 600 0 c600 0 601 0 643 22 l42 22 -40 8 c-22 4
-276 19 -565 33 -289 14 -560 28 -602 31 l-78 7 0 -62z"/>
<path d="M4396 883 c-12 -12 -6 -33 9 -33 8 0 15 6 15 14 0 17 -14 28 -24 19z"/>
<path d="M5419 867 c-130 -86 -54 -288 99 -262 51 8 91 39 74 57 -10 10 -18 9
-41 -5 -42 -24 -84 -21 -120 9 -62 52 -45 154 31 183 34 12 41 12 76 -6 63
-31 88 -9 30 27 -45 27 -106 26 -149 -3z"/>
<path d="M6150 870 c-11 -11 -20 -29 -20 -40 0 -11 -7 -20 -15 -20 -8 0 -15
-7 -15 -15 0 -8 7 -15 15 -15 12 0 15 -16 15 -85 0 -78 2 -85 20 -85 18 0 20
7 20 85 0 78 2 85 20 85 11 0 20 7 20 15 0 8 -8 15 -18 15 -10 0 -22 3 -25 6
-10 10 12 44 28 44 8 0 15 7 15 15 0 22 -36 19 -60 -5z"/>
<path d="M305 861 c-22 -10 -48 -27 -57 -37 -25 -29 -48 -89 -48 -127 0 -51
40 -118 86 -144 39 -23 40 -23 552 -23 l512 0 0 175 0 175 -502 0 c-467 0
-506 -2 -543 -19z"/>
<path d="M1440 705 l0 -175 500 0 c552 0 540 -1 597 63 71 80 48 206 -47 261
-34 20 -51 21 -542 24 l-508 3 0 -176z"/>
<path d="M2970 745 c0 -128 1 -135 20 -135 18 0 20 7 20 89 0 118 -9 181 -26
181 -11 0 -14 -28 -14 -135z"/>
<path d="M5167 813 c-4 -38 -7 -98 -7 -135 0 -61 2 -68 20 -68 19 0 20 7 20
135 0 107 -3 135 -14 135 -9 0 -15 -21 -19 -67z"/>
<path d="M8210 745 c0 -131 1 -135 21 -135 21 0 22 3 16 95 -3 52 -2 95 3 95
4 0 27 -29 50 -65 23 -36 46 -65 50 -65 4 0 27 29 50 65 23 36 46 65 50 65 5
0 6 -43 3 -95 -6 -92 -5 -95 16 -95 20 0 21 4 21 135 0 128 -1 135 -20 135
-13 0 -35 -22 -66 -70 -26 -38 -50 -70 -54 -70 -4 0 -28 32 -54 70 -31 48 -53
70 -66 70 -19 0 -20 -7 -20 -135z"/>
<path d="M3310 834 c0 -9 -9 -18 -20 -21 -23 -6 -27 -33 -5 -33 11 0 15 -13
15 -54 0 -30 4 -66 10 -81 10 -26 45 -46 68 -38 20 8 14 31 -10 35 -21 3 -23
9 -26 71 -3 66 -3 67 23 67 16 0 25 6 25 15 0 9 -9 15 -25 15 -18 0 -25 5 -25
20 0 11 -7 20 -15 20 -8 0 -15 -7 -15 -16z"/>
<path d="M4260 830 c0 -11 -7 -20 -15 -20 -8 0 -15 -7 -15 -15 0 -8 7 -15 15
-15 12 0 15 -14 15 -66 0 -36 5 -74 10 -85 13 -24 70 -27 70 -4 0 8 -9 15 -20
15 -24 0 -33 29 -28 91 2 37 7 45 26 47 31 5 29 32 -3 32 -18 0 -25 5 -25 20
0 11 -7 20 -15 20 -8 0 -15 -9 -15 -20z"/>
<path d="M10500 830 c0 -11 -7 -20 -15 -20 -8 0 -15 -7 -15 -15 0 -8 7 -15 15
-15 11 0 15 -18 17 -77 3 -70 5 -79 27 -89 13 -7 30 -10 37 -7 22 8 16 31 -8
35 -21 3 -23 9 -26 71 -3 66 -3 67 23 67 16 0 25 6 25 15 0 9 -9 15 -25 15
-18 0 -25 5 -25 20 0 11 -7 20 -15 20 -8 0 -15 -9 -15 -20z"/>
<path d="M3060 710 c0 -93 1 -100 20 -100 18 0 20 7 20 69 0 76 13 101 54 101
37 0 46 -19 46 -97 0 -68 2 -73 21 -73 20 0 21 4 18 79 -5 95 -22 121 -79 121
-20 0 -41 -5 -48 -12 -9 -9 -12 -9 -12 0 0 7 -9 12 -20 12 -19 0 -20 -7 -20
-100z"/>
<path d="M3449 781 c-49 -50 -36 -136 26 -166 41 -19 56 -19 102 0 30 13 33
17 23 30 -9 11 -17 12 -30 5 -30 -16 -75 -12 -93 8 -10 10 -17 22 -17 25 0 4
37 7 81 7 l82 0 -6 38 c-13 81 -109 111 -168 53z m113 -18 c34 -31 23 -43 -42
-43 -64 0 -73 9 -43 42 20 22 61 23 85 1z"/>
<path d="M3660 710 c0 -93 1 -100 20 -100 18 0 20 7 20 68 0 70 10 92 42 92
11 0 18 7 18 20 0 23 -29 27 -48 8 -9 -9 -12 -9 -12 0 0 7 -9 12 -20 12 -19 0
-20 -7 -20 -100z"/>
<path d="M3800 710 c0 -93 1 -100 20 -100 18 0 20 7 20 68 0 74 16 102 56 102
35 0 44 -21 44 -97 0 -66 2 -73 20 -73 18 0 20 7 20 74 0 59 -4 78 -21 100
-22 28 -64 35 -100 16 -13 -7 -19 -7 -19 0 0 5 -9 10 -20 10 -19 0 -20 -7 -20
-100z"/>
<path d="M4058 799 c-33 -19 -20 -30 27 -23 30 4 50 2 60 -6 28 -23 16 -37
-35 -44 -77 -10 -114 -61 -74 -100 25 -26 65 -31 96 -13 15 9 28 12 28 7 0 -6
9 -10 21 -10 20 0 21 4 18 79 -5 97 -21 121 -83 121 -23 0 -49 -5 -58 -11z
m102 -116 c0 -22 -29 -53 -51 -53 -47 0 -68 38 -31 59 29 17 82 14 82 -6z"/>
<path d="M4390 710 c0 -82 3 -100 15 -100 12 0 15 18 15 100 0 82 -3 100 -15
100 -12 0 -15 -18 -15 -100z"/>
<path d="M4511 794 c-36 -25 -52 -74 -40 -118 27 -98 170 -97 200 2 9 33 9 45
-5 74 -27 56 -105 77 -155 42z m109 -34 c43 -43 14 -120 -46 -120 -66 0 -95
61 -53 114 25 32 70 35 99 6z"/>
<path d="M4720 710 c0 -82 3 -100 15 -100 12 0 15 13 15 58 0 71 17 106 51
110 44 5 59 -20 59 -99 0 -62 2 -69 20 -69 17 0 20 7 20 53 0 68 -16 124 -40
137 -26 14 -73 13 -89 -2 -11 -10 -14 -10 -18 0 -3 6 -11 12 -19 12 -11 0 -14
-20 -14 -100z"/>
<path d="M4964 795 c-22 -16 -18 -17 51 -19 43 -1 50 -4 53 -22 3 -19 -3 -22
-47 -28 -59 -8 -81 -26 -81 -66 0 -38 38 -65 78 -55 15 4 42 6 60 6 l32 -1 0
80 c0 67 -3 83 -20 100 -24 24 -97 27 -126 5z m104 -122 c-5 -46 -81 -58 -95
-16 -7 20 28 43 63 43 33 0 35 -2 32 -27z"/>
<path d="M5674 795 c-51 -35 -55 -122 -8 -166 19 -18 37 -24 71 -24 38 0 49 5
74 33 63 71 20 172 -73 172 -24 0 -53 -7 -64 -15z m104 -32 c32 -27 37 -64 12
-96 -42 -53 -120 -27 -120 40 0 62 63 94 108 56z"/>
<path d="M5886 788 c-3 -13 -6 -58 -6 -100 0 -71 2 -78 20 -78 18 0 20 7 20
68 0 74 16 102 56 102 35 0 44 -21 44 -97 0 -66 2 -73 20 -73 18 0 20 7 20 74
0 59 -4 78 -21 100 -22 28 -64 35 -100 16 -13 -7 -19 -7 -19 0 0 20 -28 10
-34 -12z"/>
<path d="M6269 782 c-26 -23 -32 -36 -32 -68 0 -22 6 -50 12 -63 26 -48 129
-64 162 -25 10 13 10 17 -2 24 -8 6 -18 5 -23 0 -18 -18 -75 -11 -98 13 l-23
22 85 5 c59 3 85 9 84 18 -1 6 -2 21 -2 32 -1 12 -13 32 -27 45 -35 36 -94 34
-136 -3z m115 -24 c22 -31 12 -38 -50 -38 -40 0 -54 4 -54 14 0 45 77 62 104
24z"/>
<path d="M6480 710 c0 -82 3 -100 15 -100 12 0 15 13 15 60 0 51 4 65 25 85
13 14 29 25 35 25 5 0 10 7 10 15 0 18 -31 20 -49 3 -11 -10 -14 -10 -18 0 -3
6 -11 12 -19 12 -11 0 -14 -20 -14 -100z"/>
<path d="M6644 795 c-75 -52 -44 -177 48 -191 35 -6 98 17 98 35 0 13 -28 22
-35 11 -11 -18 -81 -11 -98 8 -10 10 -17 22 -17 25 0 4 36 7 80 7 l80 0 0 31
c0 46 -47 89 -97 89 -21 0 -48 -7 -59 -15z m100 -31 c32 -32 20 -44 -44 -44
-33 0 -60 3 -60 8 0 4 7 18 16 30 18 26 65 30 88 6z"/>
<path d="M6840 710 c0 -93 1 -100 20 -100 18 0 20 7 20 68 0 74 16 102 56 102
35 0 44 -21 44 -97 0 -66 2 -73 20 -73 18 0 20 7 20 74 0 59 -4 78 -21 100
-22 28 -64 35 -100 16 -13 -7 -19 -7 -19 0 0 5 -9 10 -20 10 -19 0 -20 -7 -20
-100z"/>
<path d="M7104 795 c-51 -35 -55 -122 -8 -166 35 -33 104 -34 136 -1 19 19 21
24 8 32 -10 6 -20 4 -31 -6 -22 -20 -73 -18 -92 4 -23 25 -21 78 3 102 24 24
67 26 92 3 15 -13 21 -14 31 -4 9 10 7 16 -12 32 -28 23 -97 26 -127 4z"/>
<path d="M7315 788 c-82 -72 -18 -204 89 -184 42 8 67 33 45 46 -8 6 -18 5
-23 0 -18 -18 -75 -11 -98 13 l-23 22 80 3 c44 2 84 7 89 12 13 13 -12 78 -37
95 -32 23 -91 19 -122 -7z m109 -30 c9 -12 16 -26 16 -30 0 -5 -27 -8 -60 -8
-45 0 -60 3 -60 14 0 45 77 62 104 24z"/>
<path d="M7663 798 c-12 -6 -29 -26 -39 -46 -14 -29 -14 -41 -5 -74 30 -99
173 -100 200 -2 12 44 -4 93 -40 118 -26 18 -83 20 -116 4z m106 -44 c26 -34
27 -68 1 -94 -42 -42 -120 -12 -120 47 0 65 80 96 119 47z"/>
<path d="M7870 710 c0 -82 3 -100 15 -100 12 0 15 14 15 63 0 72 18 107 55
107 37 0 55 -35 55 -107 0 -49 3 -63 15 -63 12 0 15 16 15 80 0 67 -3 83 -20
100 -22 22 -70 26 -101 10 -13 -7 -19 -7 -19 0 0 5 -7 10 -15 10 -12 0 -15
-18 -15 -100z"/>
<path d="M8572 799 c-38 -15 -15 -28 37 -22 43 5 50 3 60 -16 13 -24 12 -25
-54 -36 -50 -8 -75 -30 -75 -65 0 -36 23 -54 68 -52 20 1 52 1 70 2 l32 0 0
80 c0 67 -3 83 -20 100 -22 22 -77 26 -118 9z m98 -124 c0 -39 -64 -62 -89
-31 -24 29 2 52 62 55 22 1 27 -3 27 -24z"/>
<path d="M8766 758 c-3 -29 -6 -74 -6 -100 0 -41 3 -48 20 -48 18 0 20 7 20
68 0 74 16 102 56 102 35 0 44 -21 44 -97 0 -66 2 -73 20 -73 18 0 20 7 20 74
0 59 -4 78 -21 100 -22 28 -64 35 -100 16 -13 -7 -19 -7 -19 0 0 5 -6 10 -14
10 -9 0 -15 -18 -20 -52z"/>
<path d="M9018 799 c-33 -19 -20 -30 27 -23 30 4 50 2 60 -6 28 -23 16 -37
-35 -44 -77 -10 -114 -61 -74 -100 24 -25 60 -29 94 -13 16 9 30 11 30 6 0 -5
10 -9 21 -9 21 0 21 4 17 80 -6 98 -21 120 -82 120 -23 0 -49 -5 -58 -11z
m102 -116 c0 -22 -29 -53 -51 -53 -47 0 -68 38 -31 59 29 17 82 14 82 -6z"/>
<path d="M9229 781 c-54 -54 -32 -140 40 -162 31 -9 43 -8 69 5 34 18 39 12
20 -29 -14 -32 -51 -42 -96 -25 -22 8 -37 9 -44 2 -17 -17 33 -42 85 -42 38 0
53 5 72 25 24 23 25 30 25 140 0 92 -3 115 -14 115 -8 0 -16 -6 -19 -12 -4
-10 -7 -10 -18 0 -7 6 -30 12 -52 12 -29 0 -46 -7 -68 -29z m124 -32 c15 -22
17 -33 10 -55 -18 -53 -99 -59 -121 -9 -16 34 -15 38 9 69 28 35 73 33 102 -5z"/>
<path d="M9477 784 c-75 -75 -9 -200 96 -180 43 8 68 33 47 46 -9 5 -19 5 -26
-1 -22 -18 -85 -6 -102 19 l-14 22 81 0 81 0 0 34 c0 78 -106 117 -163 60z
m117 -26 c22 -30 12 -38 -49 -38 -62 0 -74 11 -45 40 27 27 75 26 94 -2z"/>
<path d="M9690 710 c0 -82 3 -100 15 -100 12 0 15 14 15 66 0 76 12 104 43
104 38 0 47 -19 47 -97 0 -67 2 -73 21 -73 18 0 20 5 18 70 -2 72 9 100 40
100 37 -1 44 -16 42 -94 -2 -70 0 -76 19 -76 18 0 20 6 20 80 0 67 -3 83 -20
100 -23 23 -70 26 -100 8 -15 -10 -22 -10 -32 0 -15 15 -70 16 -86 0 -9 -9
-12 -9 -12 0 0 7 -7 12 -15 12 -12 0 -15 -18 -15 -100z"/>
<path d="M10053 795 c-27 -19 -46 -76 -38 -114 10 -48 49 -76 105 -76 34 0 55
6 67 18 15 15 16 19 3 27 -9 5 -19 5 -26 -1 -22 -18 -85 -6 -102 19 l-14 22
81 0 81 0 0 31 c0 46 -47 89 -97 89 -21 0 -48 -7 -60 -15z m101 -31 c32 -32
20 -44 -44 -44 -33 0 -60 3 -60 8 0 4 7 18 16 30 18 26 65 30 88 6z"/>
<path d="M10257 743 c-11 -116 -10 -133 13 -133 18 0 20 7 20 68 0 74 16 102
57 102 35 0 46 -25 44 -100 -2 -64 0 -70 19 -70 18 0 20 6 20 74 0 59 -4 78
-21 100 -22 28 -64 35 -100 16 -13 -7 -19 -7 -19 0 0 5 -6 10 -14 10 -9 0 -15
-21 -19 -67z"/>
<path d="M3577 403 c-4 -3 -7 -26 -7 -50 0 -40 -2 -43 -19 -33 -65 34 -151
-14 -151 -84 0 -48 19 -85 51 -102 36 -18 69 -18 97 2 12 8 22 10 22 5 0 -6 9
-11 20 -11 19 0 20 7 20 140 0 110 -3 140 -13 140 -8 0 -17 -3 -20 -7z m-27
-123 c24 -24 26 -77 3 -102 -20 -22 -76 -24 -97 -2 -25 24 -21 90 6 108 31 22
64 20 88 -4z"/>
<path d="M3770 271 l0 -141 75 0 c67 0 79 3 100 25 30 29 32 64 6 96 -17 22
-17 27 -5 44 20 27 17 50 -9 81 -20 23 -33 27 -95 32 l-72 5 0 -142z m134 83
c35 -34 11 -64 -51 -64 l-43 0 0 40 c0 40 0 40 39 40 23 0 46 -7 55 -16z m10
-120 c35 -35 3 -74 -61 -74 l-43 0 0 45 0 45 44 0 c27 0 51 -6 60 -16z"/>
<path d="M4427 404 c-14 -15 -6 -34 14 -34 14 0 19 5 17 17 -3 18 -20 27 -31
17z"/>
<path d="M5483 400 c-46 -19 -57 -87 -20 -124 13 -13 41 -26 63 -30 63 -12 81
-38 48 -70 -21 -21 -70 -20 -92 2 -21 21 -56 17 -48 -5 3 -8 6 -16 6 -19 0
-11 64 -34 95 -34 27 0 44 8 66 29 53 54 35 102 -51 130 -30 10 -59 25 -64 34
-26 41 46 76 84 42 14 -12 23 -14 36 -7 16 9 15 12 -9 36 -27 27 -71 33 -114
16z"/>
<path d="M5680 350 c0 -11 -7 -20 -15 -20 -8 0 -15 -9 -15 -20 0 -11 7 -20 15
-20 12 0 15 -14 15 -63 0 -70 12 -93 53 -103 23 -5 27 -3 27 15 0 14 -6 21
-20 21 -18 0 -20 7 -20 65 0 58 2 65 20 65 13 0 20 7 20 20 0 13 -7 20 -20 20
-13 0 -20 7 -20 20 0 13 -7 20 -20 20 -13 0 -20 -7 -20 -20z"/>
<path d="M6170 350 c0 -11 -7 -20 -15 -20 -8 0 -15 -9 -15 -20 0 -11 7 -20 15
-20 12 0 15 -14 15 -63 0 -70 12 -93 53 -103 23 -5 27 -3 27 14 0 11 -8 22
-20 25 -17 4 -20 14 -20 66 0 54 2 61 20 61 13 0 20 7 20 20 0 13 -7 20 -20
20 -13 0 -20 7 -20 20 0 13 -7 20 -20 20 -13 0 -20 -7 -20 -20z"/>
<path d="M865 336 c-83 -37 -126 -138 -94 -223 15 -42 68 -92 109 -103 19 -5
133 -10 253 -10 l217 0 0 175 0 175 -227 0 c-168 -1 -236 -4 -258 -14z"/>
<path d="M1440 174 l0 -175 228 3 c252 3 267 7 317 72 67 88 34 210 -70 257
-35 16 -68 19 -257 19 l-218 0 0 -176z"/>
<path d="M2984 315 c-16 -13 -17 -16 -4 -24 9 -7 18 -7 24 -1 14 14 60 12 74
-2 23 -23 12 -36 -39 -43 -84 -12 -115 -63 -63 -104 32 -25 61 -27 92 -5 12 8
22 10 22 5 0 -6 9 -11 20 -11 18 0 20 7 20 71 0 68 -11 106 -34 121 -19 13
-91 9 -112 -7z m104 -122 c-6 -50 -87 -58 -96 -9 -4 18 28 34 71 35 25 1 28
-2 25 -26z"/>
<path d="M3180 230 c0 -93 1 -100 20 -100 18 0 20 7 20 69 0 74 14 101 50 101
36 0 50 -27 50 -101 0 -63 2 -69 21 -69 20 0 21 4 17 81 -3 70 -6 83 -27 100
-26 21 -81 25 -99 7 -9 -9 -12 -9 -12 0 0 7 -9 12 -20 12 -19 0 -20 -7 -20
-100z"/>
<path d="M4011 244 c4 -77 7 -88 29 -106 18 -15 33 -18 60 -14 19 4 47 6 63 6
l27 0 0 100 c0 93 -1 100 -20 100 -18 0 -20 -7 -20 -73 0 -80 -9 -97 -50 -97
-41 0 -50 17 -50 97 0 68 -2 73 -21 73 -20 0 -21 -4 -18 -86z"/>
<path d="M4250 310 c-40 -40 -22 -78 46 -100 56 -18 66 -35 30 -51 -20 -10
-30 -9 -48 3 -25 16 -62 10 -50 -8 22 -34 93 -44 130 -18 18 12 22 24 20 52
-3 35 -6 38 -53 53 -37 12 -50 21 -50 35 0 20 27 23 73 9 16 -6 22 -3 22 8 0
38 -87 50 -120 17z"/>
<path d="M4420 230 c0 -93 1 -100 20 -100 19 0 20 7 20 100 0 93 -1 100 -20
100 -19 0 -20 -7 -20 -100z"/>
<path d="M4510 230 c0 -93 1 -100 20 -100 18 0 20 7 20 68 0 57 4 72 20 87 16
15 26 17 48 9 26 -9 27 -13 30 -87 3 -69 5 -77 22 -77 18 0 20 7 20 74 0 92
-21 126 -79 126 -20 0 -42 -5 -49 -12 -9 -9 -12 -9 -12 0 0 7 -9 12 -20 12
-19 0 -20 -7 -20 -100z"/>
<path d="M4765 307 c-20 -17 -28 -35 -32 -70 -5 -43 -3 -49 31 -83 34 -34 40
-36 81 -31 55 6 80 23 64 44 -9 10 -15 11 -23 3 -17 -17 -81 -12 -99 8 -10 10
-17 22 -17 25 0 4 36 7 80 7 l80 0 0 31 c0 75 -106 118 -165 66z m107 -24 c34
-31 23 -43 -42 -43 -64 0 -72 8 -40 40 24 24 57 26 82 3z"/>
<path d="M4980 310 c-40 -40 -22 -78 46 -100 56 -18 66 -35 30 -51 -20 -10
-30 -9 -48 3 -25 16 -62 10 -50 -8 22 -34 93 -44 130 -18 18 12 22 24 20 52
-3 35 -6 38 -53 53 -37 12 -50 21 -50 35 0 20 27 23 73 9 16 -6 22 -3 22 8 0
38 -87 50 -120 17z"/>
<path d="M5160 310 c-38 -38 -19 -86 38 -96 63 -11 80 -36 37 -56 -19 -9 -29
-8 -48 5 -16 10 -28 12 -38 6 -11 -8 -10 -13 10 -29 33 -28 86 -26 116 5 43
42 27 77 -45 98 -34 10 -45 18 -45 32 0 23 40 34 58 16 16 -16 37 -14 37 4 0
36 -87 48 -120 15z"/>
<path d="M5810 230 c0 -93 1 -100 20 -100 18 0 20 7 20 68 0 70 10 92 42 92
11 0 18 7 18 20 0 22 -12 25 -41 10 -13 -7 -19 -7 -19 0 0 5 -9 10 -20 10 -19
0 -20 -7 -20 -100z"/>
<path d="M5964 315 c-28 -21 -2 -36 37 -21 33 12 62 0 67 -27 2 -11 -9 -17
-47 -22 -56 -8 -76 -20 -86 -52 -4 -17 1 -30 20 -49 23 -23 32 -25 63 -19 20
4 50 6 66 6 l28 -1 -3 86 c-3 71 -7 88 -23 100 -26 18 -97 18 -122 -1z m106
-120 c0 -39 -64 -62 -89 -31 -24 29 2 52 62 55 22 1 27 -3 27 -24z"/>
<path d="M6331 314 c-53 -37 -59 -126 -11 -169 31 -28 100 -31 130 -6 21 17
23 22 10 30 -9 7 -18 7 -24 1 -18 -18 -75 -11 -98 13 l-23 22 88 3 c96 3 98 5
73 67 -8 18 -23 38 -34 44 -30 16 -84 13 -111 -5z m99 -34 c29 -29 17 -40 -46
-40 -58 0 -66 10 -37 42 21 24 58 23 83 -2z"/>
<path d="M6549 302 c-37 -33 -43 -84 -15 -126 28 -43 74 -54 129 -31 13 5 17
2 17 -12 0 -44 -66 -68 -110 -41 -15 9 -22 10 -31 1 -29 -29 52 -59 114 -42
58 16 67 37 67 166 0 106 -1 113 -20 113 -11 0 -20 -5 -20 -10 0 -7 -6 -7 -19
0 -35 18 -79 12 -112 -18z m109 -18 c26 -18 30 -74 6 -98 -35 -36 -114 -5
-114 44 0 26 43 70 67 70 10 0 29 -7 41 -16z"/>
<path d="M6760 326 c0 -3 18 -47 40 -98 40 -91 40 -93 25 -130 -19 -48 -19
-48 3 -48 13 0 30 33 70 133 28 73 52 136 52 140 0 4 -8 7 -18 7 -13 0 -24
-17 -41 -65 -13 -36 -27 -67 -31 -70 -4 -2 -20 27 -35 65 -21 51 -33 70 -47
70 -10 0 -18 -2 -18 -4z"/>
</g>
</svg>
